<svg fill="#c0c0c0" height="64px" width="64px" xmlns="http://www.w3.org/2000/svg" viewBox="0 0 1792 1792">
  <path d="M1673.9,1363.2c0,52.3-42.4,94.3-94.3,94.3H212.7c-52.3,0-94.3-42.4-94.3-94.3c0-52.3,42.4-94.3,94.3-94.3h1366.8 C1631.5,1268.5,1673.9,1310.9,1673.9,1363.2z"/>
  <path d="M1673.9,895.6c0,52.3-42.4,94.3-94.3,94.3H213c-52.3,0-94.3-42.4-94.3-94.3c0-52.3,42.4-94.3,94.3-94.3h1366.6 C1631.5,800.8,1673.9,843.2,1673.9,895.6z"/>
  <path d="M1673.9,427.9c0,52.3-42.4,94.3-94.3,94.3H212.7c-52.3,0-94.3-42.4-94.3-94.3c0-52.3,42.4-94.3,94.3-94.3h1366.8 C1631.5,333.2,1673.9,375.6,1673.9,427.9z"/>
</svg>